<?xml version="1.0" encoding="utf-8"?>
<!-- Generator: Adobe Illustrator 27.9.0, SVG Export Plug-In . SVG Version: 6.00 Build 0)  -->
<svg version="1.1" id="Layer_1" xmlns="http://www.w3.org/2000/svg" xmlns:xlink="http://www.w3.org/1999/xlink" x="0px" y="0px"
	 viewBox="0 0 1024 1024" style="enable-background:new 0 0 1024 1024;" xml:space="preserve">
<g>
	<path d="M175.48,439.34c38.1-33.34,80.67-56.15,133.1-56.11c-28.15-8.05-56.01-16.63-84.55-22.81c21.06-0.21,41.48,3.86,63.25,9.52
		c-17.49-21.45-36.72-38.81-58.26-53.68c-21.51-14.85-45.02-25.44-71.13-32.54c27.96-16.79,57.81-25.56,88.65-31.21
		c30.83-5.65,61.74-6.03,93.57,2.07c-31.16-40.44-69.45-69.35-115.42-88.51c13.91-6,68.35-10.28,91.4-8.63
		c30.76,2.2,60.92,7.18,91.54,16.58c-8.69-17.26-18.55-32.28-29.36-48.03c16.67,7.32,31.43,15.72,47.42,24.89
		c-12.77-40.75-30.05-77.96-51.53-114.24c52.58,11.02,100.06,30.51,140.96,64.69c-5.25-11.94-11.7-23.12-17.8-34.59
		c6.21,5.26,11.58,11.32,16.94,17.39c20.45,23.12,38.21,48.3,56.19,73.32c3.08,4.28,4.37,9.28,5.93,14.19
		c5.74,18.05,11.1,36.19,16.06,54.48c2.14,7.91-0.5,14.75-1.8,21.94c-1.62,9-4.05,17.85-6.03,26.78c-0.4,1.82-2.53,4.05,0.95,5.32
		c2.94,1.08,4.4-0.06,5.82-2.71c12.14-22.76,23.05-46.11,33.58-69.64c2.2-4.91,4.27-9.89,6.78-14.67
		c-7.66,31.72-15.97,63.16-38.07,89.28c25.15,6.91,44.9,20.59,58.56,42.64c33.29-28.93,73.19-40.98,115.3-47.68
		c-39.4,13.89-78.55,28.29-113.75,51.69c48.64-19.25,99.53-25.76,151.3-27.44c-7.07,1.53-14.17,2.92-21.2,4.65
		c-7.12,1.75-13.9,4.54-20.63,7.41c-6.84,2.92-13.61,5.95-21.17,10.52c40.99-0.45,80.26,3.37,119.84,13.43
		c-35.53,13.84-66.42,33.51-96.75,56.4c29.63,13.84,58.5,27.77,84.82,46.78c-51.36,1.97-99,15.63-143.54,43.07
		c22.9,9.83,44.9,19.62,64.75,33.66c-36.49-2.91-72.49-1.46-107.91,8.51c13.02,1.28,26.09,2.25,38.97,5.31
		c-6.1,0.94-12.27,1.01-18.37,1.7c-20.16,2.27-40.4,3.73-60.29,8.04c-15.31,3.32-16.18,4.51-12.57,19.5
		c1.67,6.94,3.64,13.82,5.11,20.8c0.71,3.38,2.16,3.48,5,2.62c15.45-4.68,30.72-9.9,45.4-16.64c3.25-1.49,5.21-1.06,7.89,1.28
		c11.4,9.97,23.12,19.56,34.59,29.45c2.07,1.79,4.3,1.42,6.05,0.77c9.79-3.64,16,0.56,22.49,7.78c11.54,12.86,6.66,11.36,22.08,3.68
		c8.78-4.38,17.39-9.13,25.93-13.97c3.49-1.98,4.55-0.63,5.18,2.57c1.16,5.86,2.58,11.68,3.56,17.58c0.56,3.37,1.98,4.52,5.49,4.74
		c23.93,1.5,47.85,3.26,71.77,4.96c0.27,0.02,0.53,0.27,1.06,0.56c-8.17,8.27-16.27,16.48-24.72,25.03
		c11.81,4.59,23.4,8.95,35.15,14.66c-5.76,1.93-10.8,3.74-15.92,5.28c-2.59,0.78-3.56,1.38-1.81,4.26
		c11.22,18.47,19.68,38.55,32.49,56.11c0.26,0.35,0.23,0.91,0.38,1.56c-4.02,0.62-7.89,1.3-11.79,1.79
		c-3.04,0.38-4.26,1.13-2.78,4.63c4.33,10.26,8.15,20.73,12.38,31.03c1.23,2.99,0.93,3.62-2.49,4.17
		c-12.46,2.01-24.85,4.5-37.11,7.59c-2.79,0.7-3.83,1.71-3.84,4.59c-0.01,10.83-0.39,21.66-0.32,32.49
		c0.03,4.17-1.01,7.79-3.02,11.36c-13.67,24.26-28.75,47.59-45.52,69.83c-1.61,2.13-3.58,3.39-5.97,4.25
		c-11.16,4-18.83,11.17-23.65,22.4c-5.23,12.2-12.11,23.69-18.26,35.49c-0.08,0.15-0.13,0.32-0.24,0.44
		c-8.19,8.52-17.49,16.31-27.6,21.63c-6.79,3.57-16.85,1.68-25.04-0.67c-17.23-4.95-34.49-4.14-51.91-1.99
		c-5.45,0.67-10.96,0.89-16.43,1.42c-2.23,0.21-4.31-0.18-6.29-1.12c-20.26-9.71-40.53-19.39-60.74-29.19
		c-5.42-2.63-10.46-5.94-14.23-10.77c-1.51-1.93-2.89-2.04-4.48-0.41c-2.28,2.34-4.35,1.44-6.64-0.07
		c-7.22-4.77-14.6-9.31-21.73-14.22c-2.2-1.51-3.56-1.75-5.39,0.28c-1.32,1.47-3.15,2.49-4.5,3.94c-1.9,2.05-3.47,2.12-5.03-0.26
		c-1.81-2.76-3.53-2.06-5.59-0.14c-3.89,3.64-8.2,6.86-11.88,10.68c-2.27,2.35-4.18,2.56-6.27,0.52c-3.01-2.94-5.2-1.93-7.91,0.59
		c-8.93,8.32-20.15,12.84-30.94,18.02c-10.8,5.18-22.07,9.51-32.41,15.46c-10.8,6.21-21.82,6.67-33.61,5.32
		c-17.03-1.94-34.05-3.44-50.99,1.5c-7.84,2.29-16.1,2.33-24.3,2.1c-2.84-0.08-5.07-0.92-7.22-2.7
		c-6.95-5.71-13.93-11.39-21.51-16.25c-1.78-1.14-2.83-2.78-3.77-4.55c-7.38-13.98-14.96-27.87-22.04-42.01
		c-2.63-5.26-5.64-9.73-11.29-11.76c-10.8-3.88-17.3-12.36-23.57-21.28c-12.56-17.86-24.28-36.24-35.17-55.16
		c-2.8-4.86-4.33-9.83-4.11-15.62c0.37-10.15-0.06-20.33,0.04-30.49c0.03-2.86-0.79-3.95-3.8-4.45c-12.46-2.07-24.85-4.62-37.31-6.7
		c-2.67-0.45-2.88-1.09-1.99-3.35c4.12-10.34,8.01-20.78,12.21-31.08c1.26-3.1,1.11-4.46-2.62-4.84c-4.28-0.44-8.49-1.48-13.64-2.43
		c14.82-18.4,23.4-40.17,35.85-60.05c-6.44-2.25-12.52-4.38-19.12-6.68c11.21-5.94,22.6-10.25,34.86-15.41
		c-8.66-8.37-16.93-16.37-25.83-24.97c11.15-0.83,21.21-1.58,31.27-2.31c14.44-1.05,28.88-2.14,43.33-3.05
		c2.59-0.16,3.31-1.33,3.79-3.58c1.59-7.44,3.39-14.84,5.24-22.88c9.8,4.88,19.14,9.6,28.53,14.19c5.07,2.48,10.27,7.08,15.44,6.25
		c5.03-0.8,8.29-7,11-11.59c4.72-8,11.59-6.18,18.24-5.07c4.22,0.7,7.2-0.29,10.32-3.08c9.94-8.87,20.31-17.27,30.1-26.29
		c3.58-3.3,6.29-3.38,10.47-1.45c14.18,6.57,28.82,12.02,43.55,17.23c2.83,1,3.79,0.84,4.48-2.4c2-9.42,4.53-18.72,6.76-28.09
		c1.34-5.6-1.44-10.23-6.96-11.55c-19.63-4.7-39.61-7.06-59.69-8.69c-9.78-0.79-19.57-1.49-30.52-2.31
		c15.76-3.39,30.65-4.68,46.72-5.89c-36.35-11.39-72.47-11.24-110.07-8.77c20.68-17.34,43.1-29.2,67.11-38.61
		C301.64,461.09,231.1,442.43,175.48,439.34z M313.7,660.86c1.63,2.49,3.19,5.02,4.89,7.46c21.4,30.82,40.72,62.82,55.14,97.58
		c1.27,3.06,2.14,3.81,4.99,1.42c5.78-4.85,10.06-9.71,6.59-18.14c-1.85-4.5-2.21-9.62-3.46-15.53
		c6.08,7.31,11.44,13.84,16.91,20.29c1.45,1.71,2.49,4.09,5.19,4.27c3.76,0.24,7.52,0.4,11.48,0.6c-0.84-2.32-2.49-3.75-3.94-5.29
		c-10.71-11.45-20.11-23.96-29.95-36.13c-7.46-9.23-11.68-18.86-13.43-30.7c-3.66-24.66-8.83-49.1-13.5-73.61
		c-1.42-7.45-2.36-15.02-4.74-22.66c-5.84,4.36-11.19,8.51-16.06,13.31c-2.08,2.05-3,4.08-2.96,6.98c0.14,10.4,0.05,20.8,0.05,31.19
		c-0.59,0.07-1.17,0.13-1.76,0.2c-0.47-0.8-0.98-1.58-1.4-2.41c-4.02-7.85-7.85-15.79-12.08-23.53c-2.99-5.48-7.49-5.49-10.79-0.41
		c-1.81,2.79-3.42,5.79-5.62,8.24c-4.58,5.1-5.75,10.75-4.98,17.48c1.03,8.98,1.19,18.07,1.73,27.1
		c-6.39-8.93-12.16-17.97-15.83-28.16c-0.56-1.55-0.74-3.41-2.19-4.37c-10.53-6.92-21.65-12.69-33.93-17.68
		c1.69,6.68,4.96,11.79,8.07,17.31c-19.31,1.57-38.1,3.09-58.46,4.74c41.34,25.77,79.04,53.8,111.49,88.71
		c-7.99-15.36-15.98-30.73-24.35-46.82c23.81,19.58,42.88,41.74,55.56,69.1C329.28,720.99,319.66,691.35,313.7,660.86z
		 M720.95,666.58c0.2-7.25-0.13-13.5-0.95-19.75c-1.35-10.25-3.79-20.25-6.01-30.32c-0.65-2.94-2.61-3.12-4.71-3.44
		c-2.7-0.4-2.01,2.07-2.59,3.38c-2.73,6.19-5.38,12.41-8.15,18.85c-3.5-15.77-7.29-30.9-20.27-41.52c-1.75-1.43-3.36-4.48-5.48-3.62
		c-1.78,0.72-1.56,4.03-1.88,6.29c-3.73,25.68-7.88,51.27-13.86,76.55c-5.32,22.48-13.57,43.37-28.8,61.23
		c-6.95,8.15-13.26,16.87-20.45,24.92c7.14,1.45,11.74-1.61,16.16-6.62c5.92-6.71,12.7-12.64,19.12-18.91
		c-0.98,4.55-2.56,8.54-3.97,12.59c-4.31,12.43-4.16,12.31,5.55,21.26c3.07,2.83,4.01,1.82,5.37-1.27
		c5.56-12.63,11.55-25.07,16.83-37.81c9.54-23.02,25.06-41.78,41.97-60.57c-6.25,24.07-12.31,47.4-18.37,70.74
		c0.44,0.17,0.88,0.34,1.32,0.5c3.41-6.75,7.69-13.21,10.01-20.32c2.92-8.93,8.48-14.2,16.68-18.16c9.8-4.73,19.09-10.53,28.6-15.86
		c-9.61,10.39-26.96,37.72-28.02,45.68c32.94-35.51,71.11-63.64,112.4-89.88c-20.93-1.65-40.25-3.18-60.18-4.75
		c3.64-5.59,6.67-10.98,9.08-17.49c-16.71,6.79-30.21,17.6-45.51,26.55c0.32-3.58,0.57-6.37,0.82-9.17
		C730.05,645.45,726.61,655.98,720.95,666.58z M266.3,868.06c4.02,5.98,7.48,11.2,11.02,16.37c1.97,2.88,4.09,5.66,6.07,8.53
		c1.07,1.54,2.49,1.37,4.01,1.1c14.37-2.49,14.55-2.64,20-16.22c0.31-0.77,0.85-1.5,0.97-2.29c0.53-3.62,2.9-5.47,6.13-6.4
		c10.26-2.94,17.9-9.98,25.89-16.46c1.14-0.93,2.42-1.67,2.53-3.47c1.05-16.9-0.81-33.25-9.1-48.38
		c-8.84-16.13-21.66-28.54-36.62-38.93c-1.76-1.22-3.46-2.35-5.89-2.22c-6.65,0.35-13.32,0.65-19.97,0.52
		c-4.05-0.08-6.96,1.29-9.45,4.37c-8.39,10.38-15.74,21.48-22.71,32.83c-0.87,1.41-1.35,2.98-1.36,4.73
		c-0.04,5.16-0.18,10.32-0.34,15.48c-0.11,3.43,0.91,6.38,2.62,9.4c10.18,18.04,25.89,30.09,43.14,40.56
		c1.57,0.95,3.7,1.18,4.8,3.32C280.9,869.99,274.06,869.09,266.3,868.06z M580.23,540.26c-2.41,0-4.83-0.16-7.22,0.03
		c-12.11,0.96-24.18,2.25-35.83,5.9c-3.05,0.95-5.46,1.06-7.21-2.01c-1.37-2.4-2.84-1.11-4.53-0.27c-7.88,3.92-15.9,5.78-24.33,1.48
		c-5.32-2.71-10.1-2.81-12.86,3.54c3.32,2.11,7.51,2.99,12.03,4.78c-3.6,3.01-6.72,5.47-9.66,8.13c-1.82,1.64-3.21,1.45-5.21,0.14
		c-9.84-6.48-20.84-10.28-32.07-13.51c-1.84-0.53-4.17,0.23-6.07-2.17c4.81,0,8.97,0,13.12,0c4.03,0,8.05,0,13.16,0
		c-4.87-4.68-9.85-5.18-14.71-6.09c-6.95-1.3-15.57,0.69-20.56-3.52c-5-4.22-7.29-12.14-9.72-18.82
		c-2.83-7.75-7.59-12.17-15.82-12.68c-2.6-0.16-3.55-1.35-4.01-4c-0.68-3.97-2.11-7.83-6.31-10.84c0.59,2.31,0.91,3.92,1.41,5.47
		c9,28.4,20.83,55.67,32.94,82.84c1.04,2.33,2.68,4.22,4.49,5.93c18.2,17.15,37.63,32.82,57.69,47.71
		c6.68,4.96,15.92,4.63,22.67-0.3c8.36-6.11,16.15-12.9,23.24-20.42c12.94-13.72,20.53-29.76,20.01-48.98
		c-0.21-7.47-2.25-8.97-9.77-9.49c-8.12-0.56-15.87,0.99-23.52,3.34c-2.7,0.83-4.84,0.63-6.53-1.64
		C543.04,548.38,561.8,545.22,580.23,540.26z M502.32,325.17c-0.18-1.71-0.18-2.18-0.27-2.62c-5.22-24.19-13.69-47.23-24.67-69.37
		c-0.8-1.61-1.94-3.16-3.24-4.4c-7.82-7.48-15.75-14.85-24.24-21.59c-19.96-15.83-42.62-26.44-66.72-34.11
		c-18.2-5.79-36.62-10.8-56.54-12.53c45.2,46.33,57.53,105.08,66.23,165.1c9.03-45.83,6.9-90.81-13.78-133.77
		c40.64,35.48,58.76,83.15,72.05,133.46c5.42-37.92-3.56-72.69-22.82-106.6C457.56,264.49,483.02,291.43,502.32,325.17z
		 M762.11,870.42c-13.87-0.38-26.96,0.28-40.61-1.88c7.6-5.79,14.21-11.77,20.62-17.96c12.65-12.24,24.18-25.32,29.99-42.37
		c2.08-6.1,5.78-12.44,4.33-18.68c-2.24-9.67-6.3-18.92-12.3-27.11c-1.22-1.67-2.58-2.31-4.59-2.31
		c-9.16,0.01-18.33-0.08-27.49-0.13c-1.17-0.01-2.29,0.13-3.33,0.81c-10.76,7.02-21.64,14.07-29.36,24.52
		c-13.5,18.28-18.28,39.24-17.43,61.7c0.08,2.24,1.02,3.71,2.73,4.99c8.94,6.64,17.63,13.66,28.39,17.33
		c2.67,0.91,4.23,2.72,5.14,5.57c1.72,5.4,4.59,10.32,7.62,15.1c1.17,1.84,2.59,4.25,4.87,3.77c6.7-1.43,14.16-1.04,19.47-6.38
		C754.87,882.65,758.54,877.12,762.11,870.42z M537.46,267.36c0.62-2.73,1.13-4.46,1.38-6.22c4.2-29.28,2.94-58.45-2.1-87.51
		c-0.59-3.38-0.71-6.93-2.81-9.98c-24.67-35.88-54.28-66.48-93.11-87.22c-10.91-5.83-21.77-11.78-34.45-16.3
		c1.21,1.8,1.8,2.75,2.46,3.65c12.87,17.45,24.16,35.81,33.22,55.55c11.29,24.58,17.54,50.42,20.11,77.26
		c0.24,2.54-0.14,5.35,2.18,7.42c4.66,4.15,9.22,8.4,14.47,13.2c1.02-40.7-9.89-77.77-25.51-113.83
		c21.83,31.8,32.24,67.74,38.28,105.3c0.72-9.23-0.05-18.35-0.75-27.46c-0.72-9.3-2.25-18.48-4.29-27.56
		c-1.95-8.68-4.19-17.28-7.89-25.45C511.52,168.65,530.5,214.91,537.46,267.36z M369.19,858.69c-7.55-2.1-14.71,0.78-20.95,7.02
		c-2.46,2.46-5.4,4.43-8.06,6.71c-2.39,2.05-4.48,4.42-7.63,5.47c-5.04,1.69-9.9,4.13-15.05,5.22c-7.79,1.64-10.89,6.55-12.85,13.74
		c-4.41,16.26-4.67,16.17,8.51,26.96c2.83,2.31,5.9,3.28,9.6,3.42c6.6,0.25,11.87-2.83,17.22-5.86c14.11-7.98,28.39-14.7,45.19-15.6
		c17.05-0.91,33.26-6.19,48.69-13.63c2.22-1.07,3.41-2,2.6-4.85c-1.73-6.07-3.2-12.23-4.43-18.42c-0.65-3.26-2.46-4.29-5.44-4.55
		C407.85,862.7,389.24,859.81,369.19,858.69z M703.3,927.18c9.47,0.43,15.83-4.63,22.15-9.91c2.05-1.72,2.69-3.25,1.68-5.95
		c-2.33-6.22-4.4-12.55-6.23-18.93c-1.27-4.44-3.76-6.95-8.26-8.23c-11.08-3.17-21.78-7.14-29.88-16.05
		c-2.1-2.31-4.99-3.87-7.42-5.89c-3.8-3.16-7.98-4.07-12.97-3.66c-16.75,1.36-33.4,3.56-50.07,5.59c-3.54,0.43-5.11,1.63-4.59,5.28
		c1.05,7.31-1.02,13.3-7.59,17.3c-0.56,0.34-0.95,0.95-1.5,1.32c-3.53,2.38-2.14,3.63,0.82,5.32c12.23,7,25.52,10.63,39.36,11.71
		c16.94,1.31,32.58,5.73,46.62,15.49c2.44,1.7,5.3,2.77,7.91,4.23C696.6,926.64,700.09,927.49,703.3,927.18z M414.68,715.45
		c0.27,0.53,0.3,0.75,0.41,0.8c25.82,11.75,52.72,19.97,80.71,24.67c2.7,0.45,3.55-0.92,4.32-2.93c4.93-12.74,7.52-25.81,5.96-39.53
		c-0.22-1.95-0.81-3.56-2.53-4.59c-15.49-9.26-31.14-17.79-50.03-17.9c-15.92-0.09-31.54,1.72-46.92,5.59
		c-7.49,1.89-15,4.05-22.02,9.05c20.69,10.37,42.71,14.62,63.83,21.74C437.14,712.96,425.92,713.08,414.68,715.45z M572.08,712.87
		c1.38-1.46,2.93-1.53,4.35-1.97c15.55-4.87,31.18-9.5,45.88-16.71c5.01-2.46,5.28-5.62,0.59-8.8c-1.08-0.73-2.36-1.25-3.62-1.63
		c-4.77-1.43-9.54-2.92-14.38-4.11c-29.04-7.18-56.45-3.85-81.85,12.67c-3.54,2.3-5.82,5.01-6.55,9.4
		c-2.14,12.8-1.8,25.51,0.36,38.25c0.5,2.94,1.63,3.3,4.37,2.78c23.53-4.48,46.75-10.12,69.19-18.63
		c6.22-2.36,12.52-4.66,18.68-8.66C596.45,714.03,584.56,712.53,572.08,712.87z M413.04,790.16c-1.71-0.48-3.43-0.94-5.13-1.46
		c-5.23-1.61-10.42-3.42-15.7-4.84c-8.29-2.24-11.08-0.82-14.15,7.19c-1.55,4.02-2.86,8.16-3.95,12.33
		c-0.75,2.9-1.92,4.72-5.21,4.98c-3.33,0.26-4.59,2.58-5.05,5.75c-1.15,7.83-1.34,15.32,2.06,22.93c1.7,3.8,3.73,4.89,7.25,5.01
		c13.32,0.44,26.53,2.02,39.69,3.95c2.6,0.38,3.86-0.46,4.8-2.91c2.32-6.05,5.01-11.95,7.39-17.97c2.99-7.57,7.23-14.03,13.87-19.07
		c5.29-4.01,9.98-8.8,14.87-13.32c0.99-0.92,2.56-1.68,1.49-3.68c-2.31-4.33-4.67-8.45-9.97-9.74c-12.27-2.99-24.57-5.9-36.76-9.19
		c-5.04-1.36-8.26,0.69-11.36,4.09c-1.98,2.17-1.93,3.36,1.01,4.64C403.97,781.35,408.68,785.45,413.04,790.16z M450.28,840.77
		c0.68,12.77,3.42,24.91,7.34,36.8c0.44-0.07,0.89-0.13,1.33-0.2c0-5.25,0-10.49,0-17.19c6.84,14.75,19.39,22.55,28.74,33.33
		c-0.94-8.42-2.45-16.53-2.78-26.15c2.94,5.07,4.41,9.56,8.22,13.68c-0.91-13.29-2.07-25.67,3.19-37.79
		c2.58,3.41,4.81,6.5,7.19,9.47c2.29,2.85,4.63,5.68,7.16,8.32c2.5,2.61,5.27,4.97,8.07,7.58c-5.66-21.77-18.26-44.64-33.63-61.9
		c-2.51-2.82-3.77-2.76-5.87,0.15c-8.35,11.55-15.55,23.61-17.76,38.8c-3.04-14.78-5.06-28.71,2.24-42.35
		c-8.84,4.73-15.44,11.29-22.32,17.55c-1.94,1.77-2.57,3.51-2.64,6.01c-0.35,11.39,1.41,22.46,4.83,34.15
		C445.99,853.83,448.13,847.3,450.28,840.77z M807.52,345.82c-47.65-9.29-93.24-10.46-138.09,6.92c22.32,8.9,44.86,1.81,67.35,1.59
		c-0.36,0.38-0.52,0.71-0.78,0.79c-1.26,0.41-2.57,0.67-3.81,1.14c-17.71,6.78-34.23,15.49-47.43,29.53
		c-0.88,0.94-2.34,1.8-1.55,3.32c0.9,1.73,2.57,1.14,3.98,0.71c6.07-1.81,11.9-4.21,17.59-6.97c15.7-7.62,31.25-15.53,47.56-21.84
		c10.86-4.2,21.86-7.84,33.22-10.39c-17.07,6.05-34.08,12.08-49.16,22.52c-15.2,10.52-26.21,24.39-34.22,40.89
		C733.76,386.61,767.07,362,807.52,345.82z M562.63,502.29c-14.97,2.6-27.82,7.26-38.76,16.54c4.2-4.89,8.34-9.69,13.1-13.75
		c12.18-10.38,15.63-23.76,14.6-39.02c-0.19-2.88-0.95-3.08-3.8-3.23c-12.21-0.65-19.2,9.01-28.31,14.15
		c-7.91,4.46-13.58,12.16-19,19.6c-2.65,3.63-4.05,7.61-3.54,12.14c0.42,3.76,0.92,7.51,1.39,11.26c-0.48,0.38-0.96,0.76-1.44,1.14
		c-6.65-7.38-13.3-14.76-20.22-22.46c-3,4.79-3.76,9.27-5.42,13.4c-0.74,1.84,0.17,3,1.7,4.16c8.11,6.11,15.98,12.53,24.59,17.94
		c5.38,3.38,5.39,3.35,6.51-3.14c0.19-1.12,0.21-2.35,1.59-3.01c1.06,6.03,2.11,12.01,3.25,18.52c2.66-2.27,0.24-4.95,2.4-6.63
		c1.46,1.52,0.95,4.14,3.15,5.59c1.62-5.71,2.17-11.19,2.87-17.39c1.98,2.13,2.03,4.22,2.5,6.02c0.78,3,2.04,4.09,4.8,1.96
		C537.75,525.93,550.59,515.42,562.63,502.29z M454.92,643.76c0.23-0.09,0.46-0.17,0.69-0.26c4.11,5.2,8.4,10.26,12.28,15.63
		c4.19,5.8,9.89,8.63,17.5,10.36c-20.6-32.76-37.88-66.59-64.81-94.33c-6.76,26.96-9.8,53.92-1.62,81.18c0.48,1.59,1.26,2.57,3,2.88
		c5.55,0.97,11.12,1.92,16.62,3.14c2.64,0.58,3.35-0.28,3.8-2.78c0.92-5.12,0.13-10.35,1.04-16.55c2.27,6.04,4.49,10.9,5.87,15.99
		c1.11,4.11,3.64,5.01,7.26,5.15c2.47,0.1,3.65,0.03,2.68-3.14C457.49,655.36,456.32,649.52,454.92,643.76z M582.32,822.95
		c-7.8-21.96-20.43-38.23-37.98-50.72c-3.16-2.25-10.49,0.37-11.5,4.23c-1,3.86-3.32,5.66-6.92,6.97
		c-9.83,3.58-19.51,7.57-29.31,11.27c-2.38,0.9-3.29,1.55-1.44,4.07c15.87,21.63,35.44,39.65,56.06,57.87
		c-7.68-20.66-15.9-40.08-30.38-57.65c16.55,8.64,30.28,18.97,43.97,29.61c-6.57-14.84-12.77-29.86-26.29-40.27
		C554.6,797.33,568.61,808.85,582.32,822.95z M519.2,381.41c-5.04,0.03-9.1,1.57-13.1,2.91c-23.47,7.87-40.89,22.02-47.44,46.97
		c-4.7,17.89-6.3,36.05-3.55,54.41c0.83,5.53,1.63,11.2,4.26,17.11c8.42-44.75,31.2-78.13,71.26-99.15
		c-8.2,0.96-15.91,2.77-23.37,5.68c-7.51,2.93-13.7,7.9-19.97,12.8c5.2-7.3,11.7-13.19,18.64-18.65
		c6.94-5.47,15.03-9.06,23.76-14.04c-40.71,7.34-58.19,35.42-68.85,70.13C468.59,425.14,486.88,398.48,519.2,381.41z M475.69,363.11
		c-31.78,5.38-53.7,23.55-67.49,52.35c4.04-13.9,12.94-24.53,22.67-34.57c9.72-10.03,19.97-19.48,31.62-27.39
		c-5.34,0.62-10,2.86-14.62,4.99c-16.24,7.52-31.89,16.73-40.45,32.84c-15.18,28.59-13.95,58.26-1.57,87.92
		c-1.52-52.01,24.05-84.7,72.19-101.57c-15.2,0.2-28.75,4.48-41.04,12.88C448.03,378.63,461.58,370.46,475.69,363.11z M240.14,284.3
		c55.89,12.82,100.22,46.39,144.6,80.7c0.1-1.29,0.22-1.79,0.15-2.26c-0.12-0.81-0.38-1.61-0.56-2.41
		c-3.63-16.43-12.69-29.17-25.7-39.7C324.05,292.65,283.71,283.63,240.14,284.3z M265.12,894.05c-1.83-8.64-3.68-17.55-5.62-26.43
		c-0.33-1.5-1.37-2.56-2.82-3.29c-6.6-3.33-11.83-8.59-17.82-12.75c-12.53-8.69-18.1-21.35-20.96-35.56
		c-1.31-6.51-1.94-13.16-2.75-19.76c-0.23-1.87-0.59-3.08-2.85-3.15c-4.66-0.14-9.31-0.49-13.96-0.81
		c-2.27-0.15-3.37,0.63-3.31,3.09c0.19,8.65,0.24,17.31,0.37,25.97c0.04,2.8,1.16,5.04,3.19,7.03c5.96,5.82,12.26,11.2,18.93,16.21
		c9.79,7.36,20.15,13.82,30.56,20.28c-10.92-3.2-21.17-8.02-31.79-13.1C226.99,872.81,238.62,891.91,265.12,894.05z M593.07,771.26
		c-7.07-2.43-12.92-3.02-18.52,1.66c-2.05,1.72-2.33,2.72-0.55,4.6c12.13,12.8,23.32,26.43,34.78,39.82
		c0.95,1.1,1.86,2.56,3.69,1.84c11.91-4.73,23.73-9.62,33.35-18.48c0.91-0.84,1.44-1.69,0.91-3.05c-1.66-4.27-8.01-7.95-12.56-7.03
		c-3.56,0.72-7.07,1.64-10.61,2.46c1.55-2.1,3.4-3.47,5.26-4.83c2.01-1.47,3.98-3.01,6.07-4.36c1.77-1.15,1.88-2.31,0.87-4.13
		c-3.29-5.96-9.02-8.98-15.76-8.06c-12.69,1.72-25.63,2.11-38.5,8C584.96,775.5,588.59,773.53,593.07,771.26z M792.14,773
		c8.5-12.23,16.65-23.56,22.26-36.4c2.38-5.46,4.13-11.21,4.55-17.25c0.14-1.97-0.1-2.87-2.61-2.74
		c-15.29,0.81-28.42,7.31-41.11,15.11c-2.24,1.38-2.65,3.09-1.43,5.46C779.81,748.82,785.74,760.48,792.14,773z M223.58,771.74
		c9.39-11.94,17.39-23.56,24.89-35.54c2.2-3.51,2.25-5.87-2.23-7.4c-2.97-1.01-5.69-2.71-8.57-4.02
		c-9.09-4.14-18.31-7.92-28.48-8.36c-1.8-0.08-4.09-1.13-3.78,2.58C207,737.91,213.77,754.95,223.58,771.74z M369.35,474.61
		c-0.39-3.91-0.78-7.5-1.1-11.09c-0.19-2.15-0.68-4.76,1.35-5.98c1.77-1.06,3.93,0.35,5.54,1.4c3.54,2.32,6.9,4.94,11.04,7.96
		c-0.96-4.04-1.67-7.23-2.48-10.4c-1.72-6.74-7.88-10.95-14.89-10.24c-4.62,0.47-7.36,4.85-7.7,12.31c-0.05,1.16-0.04,2.33,0,3.49
		c0.55,15.49,4.5,30.13,10.94,44.16c0.7,1.52,1.52,2.96,3.06,3.82c8.65,4.84,15.48,11.99,22.88,18.37c3.05,2.63,6.21,1.62,9.42,1.75
		c1.03,0.04,1.51-0.53,1.12-1.57c-1.49-4.07-3.34-7.98-5.7-11.61c-1.39-2.14-3.75-0.38-5.56-0.96c-0.93-0.3-1.9-0.67-2.69-1.24
		c-4.28-3.12-6.99-7.53-9.34-12.12c-1.2-2.33,0.28-3.87,2.48-4.44c2.56-0.67,2.53-2.3,1.88-4.21c-0.58-1.73-1.15-3.5-2.04-5.07
		c-1.32-2.34-1.77-6.15-5.33-5.72c-3.23,0.39-2.81,4.03-3.7,6.4c-0.06,0.17-0.54,0.18-0.91,0.29c-0.9-4.86-1.81-9.72-2.69-14.57
		c-0.33-1.8-0.47-4.27-2.16-4.7C370.18,470,371.69,473.67,369.35,474.61z M362.93,393.56c-3.01-16.58-8.67-30.75-17.89-43.46
		c-17.18-23.66-40.91-38.51-67.19-49.85c-5.84-2.52-11.54-5.55-18.81-7.04C301.37,319.05,337.42,350.07,362.93,393.56z
		 M793.66,426.81c-0.72-0.68-0.91-1.02-1.19-1.11c-16.49-5.29-33.27-9.39-50.35-12.3c-2.4-0.41-4.16,0.63-5.95,1.93
		c-10.38,7.53-20.75,15.06-31.17,22.53c-5.05,3.62-9.99,7.36-15.4,12.8C723.67,436.48,757.38,427.01,793.66,426.81z M377.03,650.3
		c8.95-6.47,17.15-12.4,25.35-18.34c1.25-0.91,2.2-2.01,2.2-3.7c-0.01-9.74,0-19.48,0-29.51c-10.98,3.8-20.84,9.07-29.33,16.75
		c-1.5,1.36-2.66,2.68-2.49,5.06C373.47,630.34,375.16,639.95,377.03,650.3z M218.73,770.07c-2.02-2.65-3.4-4.43-4.75-6.24
		c-10.32-13.81-21.88-26.78-28.98-42.78c-0.66-1.49-0.48-5.07-3.34-3.66c-3.36,1.66-8.92,0.05-9.8,5.79
		c-0.96,6.24-1.64,12.52-2.7,18.74c-0.58,3.42,0.35,5.43,3.54,7.12C187.3,756.79,202.72,762.71,218.73,770.07z M841.26,689.71
		c-5.53-4.64-12.16-7.36-18.28-12.38c4.28-0.53,7.57-0.93,11.92-1.47c-3.32-1.54-5.63-2.44-7.78-3.63
		c-5.16-2.86-9.58-1.63-14.19,1.62c-14.82,10.46-29.75,20.78-43.59,32.55c-1.4,1.19-2.81,2.35-4.19,3.55
		c-1.36,1.18-2.68,2.4-4.02,3.61c0.27,0.48,0.54,0.96,0.81,1.44C786.18,699.73,812.84,692.39,841.26,689.71z M577.3,911.24
		c7.2,9.64,15.29,18.37,24.19,26.41c4.73,4.28,10.08,6.94,16.18,8.26c7.46,1.62,14.91,3.04,22.67,2.41
		c8.94-0.73,17.92-0.94,26.89-1.4c0.92-0.05,2.07,0.2,2.54-1.36C637.05,939.28,606.67,926.76,577.3,911.24z M450.37,911.29
		c-30.6,17.29-63.3,28.37-97.53,35.46c14.13-0.19,28.07,2.16,42.02,1.35c9.22-0.54,18.71-1.65,26.45-7.46
		C432.4,932.31,441.52,921.92,450.37,911.29z M232.95,420.56c1.73,1.44,3.45,1.26,5.04,1.38c19.28,1.4,38.18,5.09,56.93,9.56
		c19.08,4.55,37.58,11.03,56,17.71c1.63,0.59,4.09,2.3,4.28-1.34c0.13-2.41,4.22-5.29-0.87-7.28
		c-33.88-13.29-68.61-22.19-105.39-20.53C243.75,420.3,238.49,419.28,232.95,420.56z M552.37,397.64
		c9.21,29.49,21.64,58.38,10.02,90.91c19.02-18.17,23.28-53.58,9.31-75.51c0.79,7.36,1.7,14.04,1.03,21.71
		C568.29,420.37,563.45,407.26,552.37,397.64z M792.47,850.06c9.26-5.05,16.91-12.23,25.49-18c10.92-7.35,14.51-16.71,13.56-29.45
		c-0.82-11.01-0.02-11.07-11.18-10.33c-8.59,0.57-8.61,0.56-9.1,8.9c-0.2,3.32-0.25,6.66-0.34,9.99
		c-0.29,10.46-3.17,19.98-9.93,28.16C798.07,842.84,795.3,846.48,792.47,850.06z M644.85,462.95c0.77-0.61,1.54-1.22,2.31-1.83
		c1.74-1.39,3.19-4.12,5.83-2.68c2.27,1.24,3.11,3.78,2.91,6.48c-0.08,1.16-0.02,2.35-0.22,3.48c-1.8,9.82-5.62,18.89-10.55,28.25
		c-1.69-3.93,0.66-8.06-1.93-11.35c-3.99,4.12-7.12,10.92-6.76,14.35c0.85,8.1-4.66,15.35-12.76,16.99
		c-1.66,0.34-3.77-0.17-4.79,1.99c-1.76,3.7-4.04,7.18-5.01,11.53c3.54,0.05,6.76,0.65,9.6-2.01c7.08-6.61,14.93-12.21,23.36-16.99
		c1.96-1.11,3.34-2.61,4.1-4.79c3.54-10.2,7.44-20.3,9.52-30.93c1.28-6.53,2.23-13.17,1.28-19.84c-0.67-4.65-2.08-5.34-5.75-3.05
		C651.6,455.27,647.57,458.46,644.85,462.95z M419.37,488.08c1.16-2.74,4.16-1.04,5.16-2.13c2.23-2.43,4.01-1.37,6.16-0.4
		c6.16,2.77,11.74,6.55,18.18,10.85c-5.02-19.21-6.22-37.71-2.33-57.56C429.61,451.88,421.77,468.29,419.37,488.08z M263.18,714.96
		c0.3-0.58,0.6-1.15,0.9-1.73c-0.81-0.55-1.68-1.02-2.41-1.65c-15.49-13.37-31.94-25.48-48.8-37.05
		c-7.52-5.17-10.46-4.84-17.62,2.08c2.76,1.25,6.4-0.48,8.78,2.65c-7.11,3.06-13.85,6.26-21.45,11.28
		C212.43,691.81,239.49,697.78,263.18,714.96z M595.52,465.22c8.02-6.12,15.64-12.81,18.55-22.78c4.74-16.24,2.29-32.43-1.7-48.5
		c-0.18,8.76-0.56,17.46-2.42,26.11c-0.97-6.74-1.95-13.4-4.05-19.84c-2.93-8.99-5.96-15.36-9.13-18.46
		C603.54,409.87,607.86,437.61,595.52,465.22z M594.14,508.25c-9.54,2.56-16.93,5.9-24.23,9.49c-3.28,1.61-5.92,3.3-7.25,7.31
		c-1.35,4.07-4.77,7.14-8.93,8.89c-3.37,1.42-6.65,1.92-9.57-1.23c-1.01-1.09-2.12,0.06-3.06,0.7c-1.78,1.22-3.56,2.43-5.36,3.62
		c-1.63,1.07-3.87,1.85-2.67,4.48c1.23,2.69,3.54,2.08,5.58,1.32c10.83-4.06,22.18-5.38,33.53-6.87c2.81-0.37,6.51,0.19,8.22-2.74
		C584.96,525.41,589.15,517.38,594.14,508.25z M429.55,509.25c3.41,7.35,6.51,13.59,9.21,20c1.7,4.05,4.49,5.52,8.71,6.03
		c11.85,1.45,23.79,2.64,34.91,7.56c0.75,0.33,1.62,0.39,2.39,0.67c2.03,0.73,3.54,0.2,4.53-1.74c1.01-1.99-0.72-2.73-1.8-3.51
		c-4.03-2.96-7.78-7.12-13.6-3.62c-1.25,0.75-2.65,0-3.86-0.45c-5.52-2.04-9.75-5.58-12.17-11.05c-0.53-1.19-0.66-2.56-2.09-3.2
		C447.5,516.22,439.41,512.05,429.55,509.25z M306.75,947.36c-14.31-10.05-24.48-24.32-42.09-28.86
		c5.03,10.64,9.93,20.75,15.51,30.52c0.75,1.32,1.49,2.44,3.37,2.37C291.14,951.11,298.64,950.39,306.75,947.36z M539.09,668.96
		c7.01-1.76,14.13-2.63,17.94-9.62c2.77-5.08,6.22-9.8,9.16-14.79c5.13-8.71,6.68-18.4,6.68-28.67
		C561.62,633.56,550.35,651.26,539.09,668.96z M813.25,763.88c7.9-3.62,15.79-7.27,23.7-10.86c1.7-0.77,2.5-2.12,2.86-3.8
		c1.66-7.78,2.98-15.62,3.52-23.57c0.1-1.54,0.08-3.03-2.19-3.81C833.34,736.72,823.49,750.32,813.25,763.88z M339.97,425
		c-27.22-11.76-81.67-14.81-100.46-6.01C273.13,417.13,306.67,418.92,339.97,425z M352.11,493.06c-4.91-3.02-8.43-5.45-13.07-5.36
		c-15.04,0.28-29.7,2.69-44.03,7.22c-2.61,0.83-5.42,1.12-8.8,3.6C308.44,495.04,329.61,494.07,352.11,493.06z M631.94,431.79
		c-5.85,16.2-5.27,34.62-16.9,48.87C634.3,469.14,635.86,451.43,631.94,431.79z M413.4,661.66c-7.02-1.8-14.01-3.76-21.09-5.31
		c-3.21-0.7-6.52-0.53-9.77,0.83c-4.9,2.04-1.5,5.43-1.42,8.09c0.1,3.09,2.47,1.55,4.14,1.25
		C394.54,664.85,403.83,663.21,413.4,661.66z M638.11,664.93c-3.49-5.26-6.93-8.56-13-7.6c-6.46,1.02-12.82,2.35-20.36,4.85
		C616.39,664.01,626.78,664.09,638.11,664.93z M746.57,935.91c-8.63,5.07-16.61,9.92-26.3,13.96
		C738.86,951.27,740.28,950.5,746.57,935.91z M574.41,634.44c-4.23,8.3-7.09,16.87-7.48,26.1c-0.05,1.13-1.08,2.89,0.88,3.34
		c1.91,0.44,3.07-0.66,3.52-2.57C573.41,652.47,574.61,643.53,574.41,634.44z M769.29,437.75c-16.09,0.9-32.05,4.37-47.39,10.68
		C737.69,444.87,753.49,441.31,769.29,437.75z M716.48,499.73c-12.02-2.37-23.66-7.37-36.28-5.07
		C692.18,497.22,704.24,499.25,716.48,499.73z M448.88,770.55c-5.15-2.83-8.35-0.21-13.09,1.43
		C440.87,772.74,444.25,771.41,448.88,770.55z M621.11,827.45c4.1-0.82,8.34-1.32,12.68-3.87
		C628.97,824.54,624.76,824.96,621.11,827.45z"/>
	<path d="M511.17,561.58c3.96,7.07,7.83,14.18,11.91,21.17c1.31,2.25-0.32,3-1.48,4.01c-2.83,2.47-5.75,4.84-9.38,7.87
		c6.29,1.31,13.37-2.14,16.13,5.2c-11.51-4.14-23.16-4.32-34.24-0.53c1.28-2.59,1.28-2.59,14.73-4.62
		c-2.74-4.82-12.62-5.74-8.62-15.21c1.97,1.23,1.96,2.92,3.39,3.66c3.98,2.07,5.12,1.5,5.34-2.96c0.3-6.09,0.72-12.17,1.09-18.26
		C510.42,561.8,510.8,561.69,511.17,561.58z"/>
	<path d="M520.78,628.05c-4.97-7.6-10.74-13.43-20.03-14.25c2.85-6.55,4.91-7.79,12.62-7.65c5.6,0.1,12.54,3.82,13.09,8.11
		C527.14,619.53,524.3,623.98,520.78,628.05z"/>
	<path d="M394.23,810.33c-3.07-2.28-5.28-3.9-7.47-5.55c-6.01-4.55-6-4.56-1.53-12.48C388.2,798.24,390.98,803.81,394.23,810.33z"/>
	<path d="M369.52,820.93c4.22,3.24,7.74,6.91,11.39,10.82C374.24,831.76,369.08,826.88,369.52,820.93z"/>
</g>
</svg>
